Coordinates
version=1
nRows=24
nColumns=24
inDegrees=yes

Units are S.I. units (second, meters, Newtons, ...)
Angles are in degrees.

endheader
time	pelvis_tilt	pelvis_list	pelvis_rotation	pelvis_tx	pelvis_ty	pelvis_tz	hip_flexion_r	hip_adduction_r	hip_rotation_r	knee_angle_r	ankle_angle_r	subtalar_angle_r	mtp_angle_r	hip_flexion_l	hip_adduction_l	hip_rotation_l	knee_angle_l	ankle_angle_l	subtalar_angle_l	mtp_angle_l	lumbar_extension	lumbar_bending	lumbar_rotation
      0.52900000	     -7.67847026	      1.57848035	     -3.06327668	     -0.77955415	      1.03870833	      0.29242226	     32.81389036	      0.25851495	     -3.14408112	     -9.98927629	      7.01018520	      1.49649359	     11.21962980	     -4.00798596	      3.11098190	     -1.28969175	    -11.20821107	     21.60344978	      8.66890239	      2.82323862	     -2.81498278	     -1.34562793	     -2.80333711
      0.53316667	     -7.63190175	      1.56240109	     -2.98269554	     -0.77330854	      1.03783325	      0.29267832	     32.76606864	      0.30972006	     -3.00332177	    -10.16720261	      7.00951916	      1.38358502	     11.21964494	     -4.14205786	      3.08174992	     -1.23657086	    -11.82829599	     21.77417563	      8.68501409	      2.84274817	     -2.82229829	     -1.29280420	     -2.81166362
      0.53733333	     -7.55906034	      1.49623393	     -2.90444227	     -0.76702246	      1.03706366	      0.29299858	     32.63804232	      0.42424569	     -2.72847950	    -10.31779716	      6.86275686	      1.00200472	     11.22023482	     -4.23330262	      2.96339003	     -1.46836894	    -12.60606079	     21.97175309	      9.15077719	      2.93329776	     -2.87668207	     -1.17390384	     -2.87146617
      0.54150000	     -7.49023291	      1.45130130	     -2.82408017	     -0.76074707	      1.03630574	      0.29328851	     32.54828594	      0.50958258	     -2.50502558	    -10.60728862	      6.75137006	      0.71032175	     11.22652552	     -4.29850439	      2.87208504	     -1.62881427	    -13.42417215	     22.15559874	      9.52240267	      3.06325088	     -2.92134396	     -1.07709772	     -2.87528489
      0.54566667	     -7.39974920	      1.39142701	     -2.74762928	     -0.75442769	      1.03562734	      0.29358880	     32.42928398	      0.61031373	     -2.27841087	    -10.95249017	      6.59181168	      0.35763207	     11.23516300	     -4.36962938	      2.75821094	     -1.81221756	    -14.28823532	     22.29014553	      9.88416242	      3.22857981	     -2.97955604	     -0.95989887	     -2.88948901
      0.54983333	     -7.33967270	      1.33567752	     -2.66726659	     -0.74809935	      1.03492367	      0.29389655	     32.34960667	      0.70759014	     -2.03517796	    -11.37042973	      6.39540148	     -0.03621110	     11.24664038	     -4.36800102	      2.63622510	     -2.01953857	    -15.23295074	     22.42652750	     10.31578653	      3.43322960	     -3.00330770	     -0.84192174	     -2.89203241
      0.55400000	     -7.23767503	      1.26197398	     -2.59813920	     -0.74173587	      1.03433959	      0.29423214	     32.21722490	      0.82605492	     -1.79624621	    -11.82593835	      6.15543235	     -0.46384134	     11.25928675	     -4.37923920	      2.48353509	     -2.29694282	    -16.24888328	     22.50469810	     10.79066515	      3.68571379	     -3.06798849	     -0.70607524	     -2.89154777
      0.55816667	     -7.17359163	      1.19650104	     -2.52763260	     -0.73536417	      1.03372100	      0.29457279	     32.13609366	      0.93739846	     -1.54925293	    -12.34926359	      5.88360351	     -0.91448286	     11.27262802	     -4.31611022	      2.32669313	     -2.58857622	    -17.33125783	     22.55414483	     11.30493723	      3.98936100	     -3.08149196	     -0.57201261	     -2.88292957
      0.56233333	     -7.06259909	      1.11502087	     -2.46211145	     -0.72898844	      1.03322016	      0.29494070	     31.99996012	      1.06494325	     -1.30355271	    -12.90178975	      5.57954842	     -1.38881730	     11.28327713	     -4.27209850	      2.13853810	     -2.92640190	    -18.48012862	     22.57368244	     11.87616205	      4.34352745	     -3.16120778	     -0.41870371	     -2.86615818
      0.56650000	     -6.97658985	      1.03202437	     -2.38652630	     -0.72260688	      1.03272708	      0.29530968	     31.89153252	      1.18999742	     -1.07016928	    -13.49233508	      5.24918739	     -1.87693412	     11.28769999	     -4.15365494	      1.93346201	     -3.26226397	    -19.72211645	     22.54482090	     12.45926654	      4.71968447	     -3.20373962	     -0.26968139	     -2.84916349
      0.57066667	     -6.87321502	      0.95850629	     -2.32250900	     -0.71623475	      1.03228877	      0.29570323	     31.78718227	      1.30535992	     -0.87426975	    -14.15424330	      4.93739388	     -2.30572681	     11.35886096	     -4.03136691	      1.72723024	     -3.61436302	    -20.98916613	     22.35784114	     13.00894310	      9.02184139	     -3.27459365	     -0.12965235	     -2.77111979
      0.57483333	     -6.78709671	      0.87371942	     -2.25468294	     -0.70985965	      1.03187713	      0.29611972	     31.68530734	      1.43610294	     -0.64009414	    -14.80529543	      4.56449748	     -2.82877730	     11.34101612	     -3.84477726	      1.49158218	     -3.97914336	    -22.35737685	     22.20934018	     13.60607565	      9.10849992	     -3.31169733	      0.03443836	     -2.79561145
      0.57900000	     -6.69706934	      0.79022066	     -2.19151244	     -0.70350615	      1.03149654	      0.29657164	     31.59378780	      1.56457132	     -0.44006617	    -15.50324028	      4.22388959	     -3.29237639	     11.31565215	     -3.62192596	      1.23765015	     -4.37248495	    -23.79683250	     22.00465230	     14.25883480	      9.26247457	     -3.36183855	      0.18429125	     -2.75290316
      0.58316667	     -6.60813073	      0.70045687	     -2.12547572	     -0.69715709	      1.03116108	      0.29703267	     31.50258002	      1.69647807	     -0.25498121	    -16.21544145	      3.89200571	     -3.74689408	     11.28074621	     -3.36206377	      0.96237923	     -4.75754981	    -25.30031556	     21.72485616	     14.89797653	      9.47188581	     -3.40897018	      0.34362842	     -2.71661481
      0.58733333	     -6.45052010	      0.58675351	     -2.06152879	     -0.69083151	      1.03100749	      0.29751540	     31.32407250	      1.85198449	     -0.06758672	    -16.91179921	      3.56096603	     -4.26114918	     11.18200774	     -3.15011021	      0.64811114	     -5.13797692	    -26.83883767	     21.33104327	     15.53979053	     10.09130720	     -3.56117012	      0.54118818	     -2.66109812
      0.59150000	     -6.37418946	      0.49516497	     -1.99796585	     -0.68452009	      1.03072769	      0.29802091	     31.25706290	      1.98324513	      0.07355977	    -17.66659461	      3.29532068	     -4.64833665	     11.08325672	     -2.80315268	      0.33739361	     -5.52198389	    -28.45931705	     20.88889553	     16.17788952	     10.65785002	     -3.59586834	      0.70618547	     -2.62303004
      0.59566667	     -6.34022991	      0.43308917	     -1.93449539	     -0.67822968	      1.03041352	      0.29852665	     31.25204058	      2.07917387	      0.17311142	    -18.46013115	      3.10909189	     -4.90050547	     11.03416692	     -2.38014068	      0.05840838	     -5.83557033	    -30.11675976	     20.34256730	     16.67322190	     10.90957668	     -3.56066114	      0.81593429	     -2.58178721
      0.59983333	     -6.26246882	      0.34740177	     -1.88520242	     -0.67198256	      1.03023296	      0.29909158	     31.17551656	      2.21752777	      0.35643226	    -19.20797353	      2.90560817	     -5.36822510	     10.18047928	     -1.98333684	     -0.25882418	     -6.14840789	    -31.78615271	     19.62044802	     17.11432445	     15.17421772	     -3.60780471	      0.97986266	     -2.50512493
      0.60400000	     -6.15702809	      0.24724930	     -1.81440544	     -0.66574454	      1.03013684	      0.29957144	     31.08023468	      2.33078371	      0.35556007	    -19.98759116	      2.84519651	     -5.46883296	     10.16658094	     -1.57443286	     -0.60375485	     -6.44389745	    -33.52959255	     18.93135715	     17.63558079	     15.23320878	     -3.68984978	      1.15806685	     -2.48294552
      0.60816667	     -6.06185128	      0.14359823	     -1.75518627	     -0.65955152	      1.03006938	      0.30010261	     30.97948244	      2.46296636	      0.41392178	    -20.73240301	      2.78656033	     -5.70260348	     10.13401684	     -1.12806068	     -0.96006850	     -6.71299724	    -35.30059763	     18.15982115	     18.08632005	     15.33323636	     -3.76248401	      1.33874655	     -2.43858189
      0.61233333	     -5.98859626	      0.04508223	     -1.69530795	     -0.65338000	      1.03001142	      0.30063122	     30.89475164	      2.58550917	      0.44609608	    -21.46521085	      2.79355742	     -5.88041527	     10.09242269	     -0.63215908	     -1.31370237	     -6.94173064	    -37.09429034	     17.30248351	     18.45643049	     15.45164675	     -3.80753977	      1.51008723	     -2.39060119
      0.61650000	     -5.91839184	     -0.05026882	     -1.63860343	     -0.64725332	      1.02998560	      0.30115426	     30.80539256	      2.70244988	      0.45787191	    -22.18141126	      2.86318642	     -6.01751612	     10.04036412	     -0.10544546	     -1.66592928	     -7.14142915	    -38.90746382	     16.37380983	     18.76456908	     15.58630579	     -3.85422792	      1.68174838	     -2.34154485
      0.62066667	     -5.82892122	     -0.16474757	     -1.58046392	     -0.64116019	      1.03005104	      0.30166408	     30.67393197	      2.83204475	      0.44279655	    -22.85636250	      2.98415911	     -6.11960993	      9.97247152	      0.42180380	     -2.04154194	     -7.31187737	    -40.73191165	     15.39689308	     19.02149767	     15.74118893	     -3.92831845	      1.87929758	     -2.29268837
      0.62483333	     -5.76191581	     -0.26125036	     -1.52694795	     -0.63510858	      1.03010863	      0.30216644	     30.55848768	      2.94150989	      0.40976007	    -23.51382307	      3.17354378	     -6.16791299	      9.89823750	      0.99477449	     -2.39199788	     -7.44194888	    -42.55838099	     14.37215222	     19.18392959	     15.88545460	     -3.97982762	      2.05245593	     -2.24039173
